Coordinates
version=1
nRows=8
nColumns=36
inDegrees=yes

Units are S.I. units (second, meters, Newtons, ...)
If the header above contains a line with 'inDegrees', this indicates whether rotational values are in degrees (yes) or radians (no).

endheader
time	pelvis_tilt	pelvis_list	pelvis_rotation	pelvis_tx	pelvis_ty	pelvis_tz	hip_flexion_r	hip_adduction_r	hip_rotation_r	knee_angle_r	knee_angle_r_beta	ankle_angle_r	subtalar_angle_r	mtp_angle_r	hip_flexion_l	hip_adduction_l	hip_rotation_l	knee_angle_l	knee_angle_l_beta	ankle_angle_l	subtalar_angle_l	mtp_angle_l	lumbar_extension	lumbar_bending	lumbar_rotation	arm_flex_r	arm_add_r	arm_rot_r	elbow_flex_r	pro_sup_r	arm_flex_l	arm_add_l	arm_rot_l	elbow_flex_l	pro_sup_l
      1.62500000	     -2.07686165	      0.32853741	     -0.30837175	     -0.83508027	      1.25578823	     -0.10141611	     -3.29115382	      1.01218433	      4.17123681	      0.44458588	      0.00775949	      1.61319895	    -12.45991161	     -7.49999987	     -3.20441748	      1.16871337	      7.52404752	      0.45904911	      0.00801192	      6.87045891	     -4.30694231	     -7.49999987	    -10.87511063	      2.31269193	      1.41423189	     10.59214390	     -7.05326115	     20.28554671	     25.74691485	     71.63432876	     10.36823765	     -7.93412675	     24.69362163	     27.14524194	     76.30919409
      1.62916670	     -2.08431741	      0.33701193	     -0.31348565	     -0.83488819	      1.25701572	     -0.10145649	     -3.27073387	      1.00632098	      4.35703230	      0.43809207	      0.00764615	      1.35758349	    -12.85879497	     -7.49999987	     -3.16839771	      1.17958587	      7.83735510	      0.45227965	      0.00789377	      6.44791316	     -5.06679259	     -7.49999987	    -10.89659262	      2.29028420	      1.43356689	     10.65734534	     -7.18403069	     21.03884872	     25.84298168	     71.42646721	     10.45468743	     -8.12390017	     25.75188765	     27.29089624	     76.03848403
      1.63333330	     -2.14222202	      0.32576222	     -0.31004913	     -0.83563952	      1.25722845	     -0.10079011	     -3.15540004	      1.05356131	      4.49923760	      0.43788242	      0.00764249	      1.38561346	    -12.93406128	     -7.49999987	     -3.10310497	      1.16165181	      7.78850792	      0.46575199	      0.00812891	      6.52297572	     -4.96831860	     -7.49999987	    -10.88824281	      2.26580839	      1.39382234	     10.78051622	     -7.09635253	     21.05014332	     25.70901551	     71.45622079	     10.56219780	     -8.13438544	     25.77520160	     27.11877588	     76.11396102
      1.63750000	     -2.04990733	      0.31723229	     -0.25630270	     -0.83610965	      1.25164823	     -0.09994531	     -3.22785577	      1.12025780	      4.57171335	      0.44170423	      0.00770919	      1.45570355	    -13.06354150	     -7.49999987	     -3.18518064	      1.14923345	      7.93056780	      0.47754810	      0.00833479	      6.50839661	     -5.26736986	     -7.49999987	    -11.13026334	      2.21363495	      1.37071415	     10.86247914	     -7.14261517	     21.27127589	     25.92674848	     71.95407424	     10.72423785	     -8.25458561	     26.10761527	     27.25869040	     76.91832859
      1.64166670	     -1.93362883	      0.30527992	     -0.21952824	     -0.83499020	      1.25238167	     -0.10057922	     -3.38089610	      1.17479463	      4.45652361	      0.45938440	      0.00801777	      1.34717587	    -13.15234707	     -7.49999987	     -3.31086049	      1.12268946	      7.86080516	      0.48579491	      0.00847872	      6.69693300	     -4.96265481	     -7.49999987	    -11.37599193	      2.19014212	      1.32269858	     10.90786540	     -7.12152513	     21.17802388	     26.11997723	     71.62047282	     10.76887292	     -8.28524352	     25.99712290	     27.43249872	     76.46342466
      1.64583330	     -1.90959875	      0.27411165	     -0.20227040	     -0.83517181	      1.25013169	     -0.10165028	     -3.44828760	      1.21657533	      4.44809230	      0.48601067	      0.00848249	      1.23559956	    -13.42143899	     -7.49999987	     -3.32501161	      1.10452463	      7.89683972	      0.50258057	      0.00877169	      6.72654454	     -5.27377792	     -7.49999987	    -11.48499897	      2.22401543	      1.28935873	     10.97556985	     -7.17507380	     21.27371395	     26.24081158	     71.89959537	     10.82766866	     -8.30681392	     26.03578288	     27.52688360	     76.89272905
      1.65000000	     -1.92821633	      0.26123383	     -0.22973260	     -0.83433875	      1.25144343	     -0.10114711	     -3.45274238	      1.22689747	      4.40090240	      0.51616537	      0.00900879	      1.26099405	    -13.45696505	     -7.49999987	     -3.31871052	      1.08490842	      7.88326831	      0.51105566	      0.00891960	      6.75178217	     -5.27828620	     -7.49999987	    -11.47543065	      2.21541960	      1.28441678	     10.98155574	     -7.16563404	     21.27434242	     26.24605434	     71.90793376	     10.85471815	     -8.29965779	     26.03160828	     27.53853794	     76.90458583
      1.65416670	     -1.76913214	      0.25638624	     -0.13127243	     -0.83247979	      1.25582950	     -0.10228566	     -3.70102899	      1.21189720	      4.11759290	      0.54292750	      0.00947587	      1.26302999	    -13.31626812	     -7.49999987	     -3.50055451	      1.07283831	      7.82652968	      0.51558934	      0.00899873	      6.81502757	     -5.10969190	     -7.49999987	    -11.67340774	      2.23786718	      1.20245775	     10.99174477	     -7.16904567	     21.25221764	     26.26626993	     71.44352854	     10.87832045	     -8.24292473	     25.96775787	     27.58127836	     76.27931170
